<svg width="98" height="24" viewBox="0 0 98 24" fill="none" xmlns="http://www.w3.org/2000/svg">
<path fill-rule="evenodd" clip-rule="evenodd" d="M24.3855 18.5708C24.3855 18.5708 24.1993 19.39 25.0143 19.4578C25.4264 19.47 25.8646 19.47 26.3251 19.47C29.2638 19.47 31.9521 18.4679 32.0124 16.0063C32.0678 13.8246 29.9756 13.167 27.4545 13.167H25.6757L24.3855 18.5708ZM37.7174 16.1264C37.7174 19.3914 34.7635 23.6988 24.5471 23.1686C23.3498 23.1059 22.614 23.0142 21.534 22.768C17.6858 21.8891 19.0395 17.6761 19.0395 17.6761L22.955 1.37276C25.1096 1.04703 27.5259 0.849243 30.0079 0.849243C35.4721 0.849243 39.0928 2.65834 39.0928 6.0441C39.0928 9.21423 35.7952 10.9372 33.299 11.3277C35.2772 11.4648 37.7174 12.8814 37.7174 16.1264ZM27.7283 4.63509L26.7406 8.83543C26.7406 8.83543 26.4951 9.73463 27.3319 9.73463H28.4841C31.4483 9.73463 33.5014 8.65702 33.553 6.75871C33.5948 5.19276 32.1417 4.51428 30.0784 4.51428C29.1352 4.51428 28.1448 4.57392 27.7283 4.63509ZM62.7003 23.2275H59.457L64.5997 1.49378C66.7266 1.03246 68.9654 0.941217 71.5582 0.961607C77.8868 0.985055 80.788 3.23152 80.788 7.14741C80.788 10.7355 77.744 16.015 68.9909 16.015C68.0944 16.015 67.3234 15.9197 66.7668 15.885C66.7668 15.885 66.0539 18.9068 65.6298 20.6874C65.0955 22.9226 63.53 23.2275 62.7003 23.2275ZM69.7352 4.79313L68.3055 10.853C68.3055 10.853 67.8445 12.1412 69.4903 12.1412C69.6934 12.1493 69.9139 12.1549 70.1566 12.1549C73.8359 12.1284 75.7256 9.87583 75.7256 7.54373C75.7256 5.24935 74.0368 4.68506 72.0039 4.68506C70.9657 4.68506 70.1865 4.73094 69.7352 4.79313ZM46.6186 13.6254C46.6186 17.056 48.7412 19.2495 52.3825 19.2495C53.8817 19.2495 55.5199 19.0135 57.7294 17.4924L56.8633 21.1462C56.8633 21.1462 56.6228 22.3584 55.1876 22.8294C54.0218 23.2398 52.7919 23.4264 50.9278 23.4264C45.7352 23.4264 40.668 21.0265 40.668 13.9155C40.668 7.26373 45.2085 0.50293 53.9735 0.50293C55.6931 0.50293 56.9089 0.730278 58.4657 1.2018C60.8663 1.9287 61.1578 3.14904 60.9987 3.88053C60.8364 4.62935 60.27 6.42877 60.27 6.42877C58.76 5.16255 56.1297 4.80623 54.6674 4.80623C49.0648 4.80623 46.6186 10.0877 46.6186 13.6254ZM9.59723 10.7857C7.63811 8.79161 5.57147 7.58605 4.04566 6.89891C4.04566 6.89891 3.3023 6.55279 2.91406 6.35399C3.47986 5.16015 4.22431 4.30734 4.22431 4.30734C4.32965 4.17838 6.5847 1.6908 8.56826 2.56451C10.7348 3.47951 10.9553 7.67933 9.59723 10.7857ZM90.0855 10.7857C88.1264 8.7916 86.0598 7.58604 84.5339 6.8989C84.5339 6.8989 83.7906 6.55278 83.4023 6.35398C83.9681 5.16015 84.7126 4.30734 84.7126 4.30734C84.8179 4.17837 87.073 1.69079 89.0565 2.5645C91.2231 3.4795 91.4436 7.67933 90.0855 10.7857Z" fill="white"/>
<path fill-rule="evenodd" clip-rule="evenodd" d="M16.3205 13.9614C14.2083 17.1285 8.44604 20.7385 6.81325 21.2799C3.63783 22.5273 1.48812 20.214 1.30458 19.9714C0.712177 19.2552 0.568284 19.1038 0.281583 18.5813C0.225655 18.6679 6.37723 15.9816 8.58124 12.5061C10.9682 9.521 11.1762 3.66551 8.5693 2.56445C9.35772 2.93708 11.2153 3.93823 12.8915 5.34055C14.5639 6.6715 16.0094 8.41688 15.9784 8.39446C16.1549 8.61926 18.2498 11.0671 16.3205 13.9614ZM96.4667 8.39446C96.6432 8.61926 98.7381 11.0671 96.8088 13.9614C94.6971 17.1285 88.9343 20.7385 87.3015 21.2799C84.1261 22.5273 81.9764 20.214 81.7929 19.9714C81.2005 19.2552 81.0566 19.1038 80.7699 18.5813C80.7139 18.6679 86.8661 15.9816 89.0695 12.5061C91.4565 9.521 91.6645 3.66551 89.0576 2.56445C89.846 2.93708 91.7036 3.93823 93.3798 5.34055C95.0522 6.6715 96.4982 8.41688 96.4667 8.39446Z" fill="#FF7800"/>
</svg>
